<mxfile host="app.diagrams.net" modified="2023-12-04T09:26:46.419Z" agent="Mozilla/5.0 (Windows NT 10.0; Win64; x64) AppleWebKit/537.36 (KHTML, like Gecko) Chrome/119.0.0.0 Safari/537.36" etag="aH5xgRMxo6Nz0sOc7TNn" version="22.1.5" type="device">
  <diagram name="Page-1" id="kew3v9ed8BzsvsX9wPct">
    <mxGraphModel dx="1195" dy="652" grid="1" gridSize="10" guides="1" tooltips="1" connect="1" arrows="1" fold="1" page="1" pageScale="1" pageWidth="850" pageHeight="1100" math="0" shadow="0">
      <root>
        <mxCell id="0" />
        <mxCell id="1" parent="0" />
        <mxCell id="4igqI_ggyg1ziFUCglI0-17" value="" style="edgeStyle=orthogonalEdgeStyle;rounded=0;orthogonalLoop=1;jettySize=auto;html=1;" parent="1" source="4igqI_ggyg1ziFUCglI0-1" target="4igqI_ggyg1ziFUCglI0-16" edge="1">
          <mxGeometry relative="1" as="geometry" />
        </mxCell>
        <mxCell id="4igqI_ggyg1ziFUCglI0-1" value="Start" style="ellipse;whiteSpace=wrap;html=1;" parent="1" vertex="1">
          <mxGeometry x="250" y="20" width="120" height="80" as="geometry" />
        </mxCell>
        <mxCell id="4igqI_ggyg1ziFUCglI0-5" value="" style="edgeStyle=orthogonalEdgeStyle;rounded=0;orthogonalLoop=1;jettySize=auto;html=1;" parent="1" source="4igqI_ggyg1ziFUCglI0-2" target="4igqI_ggyg1ziFUCglI0-4" edge="1">
          <mxGeometry relative="1" as="geometry" />
        </mxCell>
        <mxCell id="4igqI_ggyg1ziFUCglI0-2" value="Open file" style="whiteSpace=wrap;html=1;" parent="1" vertex="1">
          <mxGeometry x="70" y="120" width="120" height="60" as="geometry" />
        </mxCell>
        <mxCell id="4igqI_ggyg1ziFUCglI0-7" value="" style="edgeStyle=orthogonalEdgeStyle;rounded=0;orthogonalLoop=1;jettySize=auto;html=1;" parent="1" source="4igqI_ggyg1ziFUCglI0-4" target="4igqI_ggyg1ziFUCglI0-6" edge="1">
          <mxGeometry relative="1" as="geometry" />
        </mxCell>
        <mxCell id="4igqI_ggyg1ziFUCglI0-4" value="Read file" style="whiteSpace=wrap;html=1;" parent="1" vertex="1">
          <mxGeometry x="70" y="200" width="120" height="60" as="geometry" />
        </mxCell>
        <mxCell id="4igqI_ggyg1ziFUCglI0-15" value="Yes" style="edgeStyle=orthogonalEdgeStyle;rounded=0;orthogonalLoop=1;jettySize=auto;html=1;" parent="1" source="4igqI_ggyg1ziFUCglI0-6" target="4igqI_ggyg1ziFUCglI0-14" edge="1">
          <mxGeometry relative="1" as="geometry" />
        </mxCell>
        <mxCell id="_evGZ0kZnJW3w8cRXoGL-3" value="No" style="edgeStyle=orthogonalEdgeStyle;rounded=0;orthogonalLoop=1;jettySize=auto;html=1;exitX=0.5;exitY=1;exitDx=0;exitDy=0;" edge="1" parent="1" source="4igqI_ggyg1ziFUCglI0-6" target="_evGZ0kZnJW3w8cRXoGL-1">
          <mxGeometry relative="1" as="geometry" />
        </mxCell>
        <mxCell id="4igqI_ggyg1ziFUCglI0-6" value="Does the file have any more lines?" style="rhombus;whiteSpace=wrap;html=1;" parent="1" vertex="1">
          <mxGeometry x="230" y="170" width="130" height="120" as="geometry" />
        </mxCell>
        <mxCell id="4igqI_ggyg1ziFUCglI0-20" value="" style="edgeStyle=orthogonalEdgeStyle;rounded=0;orthogonalLoop=1;jettySize=auto;html=1;" parent="1" source="4igqI_ggyg1ziFUCglI0-14" target="4igqI_ggyg1ziFUCglI0-19" edge="1">
          <mxGeometry relative="1" as="geometry" />
        </mxCell>
        <mxCell id="4igqI_ggyg1ziFUCglI0-14" value="Let this line be a key in the dictionary" style="whiteSpace=wrap;html=1;" parent="1" vertex="1">
          <mxGeometry x="445" y="200" width="120" height="60" as="geometry" />
        </mxCell>
        <mxCell id="4igqI_ggyg1ziFUCglI0-18" value="" style="edgeStyle=orthogonalEdgeStyle;rounded=0;orthogonalLoop=1;jettySize=auto;html=1;" parent="1" source="4igqI_ggyg1ziFUCglI0-16" target="4igqI_ggyg1ziFUCglI0-2" edge="1">
          <mxGeometry relative="1" as="geometry" />
        </mxCell>
        <mxCell id="4igqI_ggyg1ziFUCglI0-16" value="Create a dictionary" style="whiteSpace=wrap;html=1;" parent="1" vertex="1">
          <mxGeometry x="70" y="30" width="120" height="60" as="geometry" />
        </mxCell>
        <mxCell id="4igqI_ggyg1ziFUCglI0-22" value="" style="edgeStyle=orthogonalEdgeStyle;rounded=0;orthogonalLoop=1;jettySize=auto;html=1;" parent="1" source="4igqI_ggyg1ziFUCglI0-19" target="4igqI_ggyg1ziFUCglI0-21" edge="1">
          <mxGeometry relative="1" as="geometry" />
        </mxCell>
        <mxCell id="4igqI_ggyg1ziFUCglI0-19" value="Let the next line be the first item in a list" style="whiteSpace=wrap;html=1;" parent="1" vertex="1">
          <mxGeometry x="645" y="200" width="120" height="60" as="geometry" />
        </mxCell>
        <mxCell id="4igqI_ggyg1ziFUCglI0-24" value="" style="edgeStyle=orthogonalEdgeStyle;rounded=0;orthogonalLoop=1;jettySize=auto;html=1;" parent="1" source="4igqI_ggyg1ziFUCglI0-21" target="4igqI_ggyg1ziFUCglI0-23" edge="1">
          <mxGeometry relative="1" as="geometry" />
        </mxCell>
        <mxCell id="4igqI_ggyg1ziFUCglI0-21" value="Let the next line be the second item in a list" style="whiteSpace=wrap;html=1;" parent="1" vertex="1">
          <mxGeometry x="645" y="60" width="120" height="60" as="geometry" />
        </mxCell>
        <mxCell id="4igqI_ggyg1ziFUCglI0-27" value="" style="edgeStyle=orthogonalEdgeStyle;rounded=0;orthogonalLoop=1;jettySize=auto;html=1;entryX=0.5;entryY=0;entryDx=0;entryDy=0;" parent="1" source="4igqI_ggyg1ziFUCglI0-23" target="4igqI_ggyg1ziFUCglI0-6" edge="1">
          <mxGeometry relative="1" as="geometry">
            <Array as="points">
              <mxPoint x="505" y="140" />
              <mxPoint x="295" y="140" />
            </Array>
          </mxGeometry>
        </mxCell>
        <mxCell id="4igqI_ggyg1ziFUCglI0-23" value="Let the next line be the third item in a list" style="whiteSpace=wrap;html=1;" parent="1" vertex="1">
          <mxGeometry x="445" y="60" width="120" height="60" as="geometry" />
        </mxCell>
        <mxCell id="_evGZ0kZnJW3w8cRXoGL-5" value="" style="edgeStyle=orthogonalEdgeStyle;rounded=0;orthogonalLoop=1;jettySize=auto;html=1;exitX=1;exitY=0.5;exitDx=0;exitDy=0;" edge="1" parent="1" source="_evGZ0kZnJW3w8cRXoGL-1" target="_evGZ0kZnJW3w8cRXoGL-4">
          <mxGeometry relative="1" as="geometry">
            <mxPoint x="217.46408045977023" y="390.0344827586207" as="sourcePoint" />
            <Array as="points" />
          </mxGeometry>
        </mxCell>
        <mxCell id="_evGZ0kZnJW3w8cRXoGL-20" value="Yes" style="edgeLabel;html=1;align=center;verticalAlign=middle;resizable=0;points=[];" vertex="1" connectable="0" parent="_evGZ0kZnJW3w8cRXoGL-5">
          <mxGeometry x="-0.6002" y="-2" relative="1" as="geometry">
            <mxPoint as="offset" />
          </mxGeometry>
        </mxCell>
        <mxCell id="_evGZ0kZnJW3w8cRXoGL-19" value="No" style="edgeStyle=orthogonalEdgeStyle;rounded=0;orthogonalLoop=1;jettySize=auto;html=1;" edge="1" parent="1" source="_evGZ0kZnJW3w8cRXoGL-1" target="_evGZ0kZnJW3w8cRXoGL-18">
          <mxGeometry relative="1" as="geometry" />
        </mxCell>
        <mxCell id="_evGZ0kZnJW3w8cRXoGL-1" value="Does the dictionary have any more items?" style="rhombus;whiteSpace=wrap;html=1;" vertex="1" parent="1">
          <mxGeometry x="65" y="330" width="125" height="120" as="geometry" />
        </mxCell>
        <mxCell id="_evGZ0kZnJW3w8cRXoGL-7" value="" style="edgeStyle=orthogonalEdgeStyle;rounded=0;orthogonalLoop=1;jettySize=auto;html=1;" edge="1" parent="1" source="_evGZ0kZnJW3w8cRXoGL-4" target="_evGZ0kZnJW3w8cRXoGL-6">
          <mxGeometry relative="1" as="geometry" />
        </mxCell>
        <mxCell id="_evGZ0kZnJW3w8cRXoGL-4" value="Add 3rd list item to total wages" style="whiteSpace=wrap;html=1;" vertex="1" parent="1">
          <mxGeometry x="247.5" y="360" width="120" height="60" as="geometry" />
        </mxCell>
        <mxCell id="_evGZ0kZnJW3w8cRXoGL-9" value="" style="edgeStyle=orthogonalEdgeStyle;rounded=0;orthogonalLoop=1;jettySize=auto;html=1;" edge="1" parent="1" source="_evGZ0kZnJW3w8cRXoGL-6" target="_evGZ0kZnJW3w8cRXoGL-8">
          <mxGeometry relative="1" as="geometry" />
        </mxCell>
        <mxCell id="_evGZ0kZnJW3w8cRXoGL-6" value="Add 1 to payroll count" style="whiteSpace=wrap;html=1;" vertex="1" parent="1">
          <mxGeometry x="392.5" y="360" width="120" height="60" as="geometry" />
        </mxCell>
        <mxCell id="_evGZ0kZnJW3w8cRXoGL-13" value="" style="edgeStyle=orthogonalEdgeStyle;rounded=0;orthogonalLoop=1;jettySize=auto;html=1;" edge="1" parent="1" source="_evGZ0kZnJW3w8cRXoGL-8" target="_evGZ0kZnJW3w8cRXoGL-12">
          <mxGeometry relative="1" as="geometry" />
        </mxCell>
        <mxCell id="_evGZ0kZnJW3w8cRXoGL-8" value="If manager, add 3rd list item to total manager wages" style="whiteSpace=wrap;html=1;" vertex="1" parent="1">
          <mxGeometry x="537.5" y="360" width="120" height="60" as="geometry" />
        </mxCell>
        <mxCell id="_evGZ0kZnJW3w8cRXoGL-15" value="" style="edgeStyle=orthogonalEdgeStyle;rounded=0;orthogonalLoop=1;jettySize=auto;html=1;" edge="1" parent="1" source="_evGZ0kZnJW3w8cRXoGL-12" target="_evGZ0kZnJW3w8cRXoGL-14">
          <mxGeometry relative="1" as="geometry" />
        </mxCell>
        <mxCell id="_evGZ0kZnJW3w8cRXoGL-12" value="If sales, add 3rd list item to total sales wages" style="whiteSpace=wrap;html=1;" vertex="1" parent="1">
          <mxGeometry x="537.5" y="440" width="120" height="60" as="geometry" />
        </mxCell>
        <mxCell id="_evGZ0kZnJW3w8cRXoGL-14" value="If administration, add 3rd list item to total administration wages" style="whiteSpace=wrap;html=1;" vertex="1" parent="1">
          <mxGeometry x="247.5" y="440" width="120" height="60" as="geometry" />
        </mxCell>
        <mxCell id="_evGZ0kZnJW3w8cRXoGL-17" value="" style="endArrow=classic;html=1;rounded=0;exitX=0;exitY=0.5;exitDx=0;exitDy=0;entryX=1;entryY=1;entryDx=0;entryDy=0;" edge="1" parent="1" source="_evGZ0kZnJW3w8cRXoGL-14" target="_evGZ0kZnJW3w8cRXoGL-1">
          <mxGeometry width="50" height="50" relative="1" as="geometry">
            <mxPoint x="377.5" y="480" as="sourcePoint" />
            <mxPoint x="187.5" y="420" as="targetPoint" />
          </mxGeometry>
        </mxCell>
        <mxCell id="_evGZ0kZnJW3w8cRXoGL-22" value="" style="edgeStyle=orthogonalEdgeStyle;rounded=0;orthogonalLoop=1;jettySize=auto;html=1;" edge="1" parent="1" source="_evGZ0kZnJW3w8cRXoGL-18" target="_evGZ0kZnJW3w8cRXoGL-21">
          <mxGeometry relative="1" as="geometry" />
        </mxCell>
        <mxCell id="_evGZ0kZnJW3w8cRXoGL-18" value="Create formatted f-string with all details on it" style="whiteSpace=wrap;html=1;" vertex="1" parent="1">
          <mxGeometry x="67.5" y="540" width="120" height="60" as="geometry" />
        </mxCell>
        <mxCell id="_evGZ0kZnJW3w8cRXoGL-24" value="" style="edgeStyle=orthogonalEdgeStyle;rounded=0;orthogonalLoop=1;jettySize=auto;html=1;" edge="1" parent="1" source="_evGZ0kZnJW3w8cRXoGL-21" target="_evGZ0kZnJW3w8cRXoGL-23">
          <mxGeometry relative="1" as="geometry" />
        </mxCell>
        <mxCell id="_evGZ0kZnJW3w8cRXoGL-21" value="Write cretaed string to a new file" style="whiteSpace=wrap;html=1;" vertex="1" parent="1">
          <mxGeometry x="267.5" y="540" width="120" height="60" as="geometry" />
        </mxCell>
        <mxCell id="_evGZ0kZnJW3w8cRXoGL-23" value="End" style="ellipse;whiteSpace=wrap;html=1;" vertex="1" parent="1">
          <mxGeometry x="460" y="530" width="120" height="80" as="geometry" />
        </mxCell>
      </root>
    </mxGraphModel>
  </diagram>
</mxfile>
